<svg width="1964" height="420" xmlns="http://www.w3.org/2000/svg" xmlns:xlink="http://www.w3.org/1999/xlink" xml:space="preserve" overflow="hidden"><g transform="translate(-2311 -266)"><path d="M100.946 132.06C100.977 131.468 98.4374 129.957 97.7986 130.284 96.2406 131.079 95.1188 132.699 93.8412 133.992 95.259 135.129 96.6924 136.267 98.9827 138.09 99.9332 135.425 100.884 133.758 100.946 132.06ZM108.502 86.16C108.767 85.0382 107.474 83.5737 106.882 82.2493 105.324 83.262 102.831 84.0099 102.457 85.3498 102.037 86.8923 103.47 88.9645 104.67 92.5324 106.617 89.4163 108.082 87.905 108.502 86.16ZM363.82 155.384C363.103 156.506 361.623 157.83 361.841 158.734 362.23 160.448 363.617 161.912 364.599 163.47 365.845 162.146 367.092 160.806 369.024 158.734 366.811 157.3 365.315 156.35 363.82 155.384ZM412.524 824.674C411.574 847.578 410.623 870.419 409.689 893.275 412.026 891.655 413.272 889.754 413.256 887.853 413.147 866.742 412.836 845.63 412.587 824.503 412.587 824.503 412.524 824.612 412.524 824.674ZM412.587 824.503C414.222 819.611 417.167 814.765 417.276 809.842 417.775 787.188 417.494 764.518 417.494 741.849 415.407 750.62 415.718 759.408 415.36 768.18 414.596 787.001 413.49 805.807 412.524 824.612ZM232.149 48.3774C229.251 40.3223 225.714 32.4385 223.642 24.1809 221.648 16.3128 221.18 8.07069 220.043 0 218.251 0.389512 216.444 0.779022 214.637 1.16854 216.086 17.9799 213.764 35.5235 223.938 50.621 226.665 49.8731 229.407 49.1252 232.149 48.3774ZM286.447 131.639C296.247 129.411 306.063 127.199 316.471 124.846 317.686 105.838 317.686 105.838 308.088 99.1853 306.468 105.667 304.941 111.759 303.367 118.022 297.649 118.022 293.365 118.022 288.426 118.022 287.88 123.226 287.413 127.713 286.946 132.2 286.946 132.2 286.463 131.671 286.447 131.639ZM130.253 364.349C131.53 364.505 132.824 364.661 134.101 364.817 134.6 360.672 135.114 356.528 135.612 352.399 134.288 352.228 132.979 352.072 131.655 351.916 131.188 356.061 130.72 360.205 130.253 364.349ZM327.533 277.13C327.533 275.821 327.533 274.497 327.533 273.172 324.074 273.172 320.615 273.172 317.156 273.172 317.187 274.497 317.156 276.958 317.281 276.974 320.693 277.177 324.121 277.13 327.533 277.13ZM360.034 1886.78C361.28 1888.45 362.433 1889.97 363.586 1891.52 364.396 1890.55 365.892 1889.54 365.83 1888.63 365.752 1887.37 364.677 1885.95 363.633 1885.1 363.259 1884.8 361.701 1885.97 360.034 1886.78ZM130.019 233.536C132.496 239.581 134.491 244.426 137.934 252.84 140.006 242.23 144.93 234.626 130.019 233.536ZM119.175 363.352C120.671 360.75 122.852 358.444 122.385 357.478 121.232 355.188 118.817 353.537 116.916 351.62 115.171 353.459 113.41 355.297 111.665 357.136 113.893 358.99 116.121 360.828 119.175 363.352ZM102.504 210.445C101.522 211.988 100.556 213.515 99.5748 215.057 102.333 216.132 105.075 218.002 107.817 218.002 110.014 218.002 112.211 215.712 114.407 214.45 112.927 212.253 111.852 208.887 109.858 208.217 107.879 207.547 104.997 209.589 102.504 210.445ZM263.528 221.913C271.786 221.025 276.834 220.479 282.287 219.887 281.742 211.801 281.321 205.413 280.885 198.682 275.26 206.223 270.461 212.627 263.528 221.913ZM192.762 321.565C203.419 311.796 198.978 303.944 198.713 297.229 198.464 290.934 201.783 281.788 187.729 279.498 189.396 293.427 190.845 305.549 192.762 321.565ZM138.869 278.719C134.724 281.134 130.798 284.889 126.373 285.637 120.967 286.54 115.14 284.92 108.954 284.344 112.242 304.349 131.188 300.407 141.175 313.074 144.961 299.02 155.197 288.192 138.51 279.155 139.212 268.342 137.389 260.833 123.834 258.745 117.539 257.779 112.382 249.443 106.711 244.442 103.782 267.143 106.711 270.913 127.573 273.375 131.499 273.842 135.114 276.865 138.869 278.719ZM286.463 131.671C284.375 136.329 282.271 140.988 280.168 145.662 295.749 158.438 310.986 141.86 328.421 145.522 326.208 161.959 341.29 165.231 352.913 173.208 351.651 178.848 350.389 184.442 348.691 192.014 341.898 187.402 336.819 183.959 328.343 178.194 329.558 188.368 330.322 194.662 331.319 202.92 342.568 202.188 352.43 201.549 364.536 200.77 365.533 203.699 368.073 208.311 368.634 213.156 370.691 231.261 370.582 249.771 374.212 267.532 377.608 284.094 377.998 297.634 357.214 306.032 366.032 311.75 372.062 315.676 380.553 321.191 380.553 336.99 380.475 354.409 380.615 371.844 380.647 376.346 380.584 381.114 381.94 385.305 386.302 398.658 387.72 411.792 384.448 425.768 382.906 432.343 384.729 439.712 385.04 446.723 386.739 446.754 388.437 446.786 390.135 446.832 391.241 442.844 392.347 438.871 393.485 434.742 394.124 435.879 395.245 436.97 395.277 438.092 397.956 502.797 400.948 567.488 402.942 632.209 403.659 655.798 401.867 679.449 401.415 703.069 401.119 718.338 401.369 733.607 401.057 748.86 399.997 800.681 398.782 852.501 397.692 904.322 396.679 951.624 395.947 998.942 394.747 1046.23 394.046 1074.29 397.037 1102.61 388.39 1130.15 387.066 1134.35 387.673 1139.24 387.767 1143.81 389.153 1201.61 390.618 1259.42 394.077 1317.84 395.355 1312.78 396.632 1307.72 397.925 1302.65 399.421 1302.53 400.932 1302.4 402.444 1302.28 403.456 1308.25 405.201 1314.18 405.357 1320.18 406.728 1370.52 407.383 1420.89 409.128 1471.22 410.732 1517.68 414.986 1564.08 415.235 1610.51 415.64 1686.04 409.626 1761.23 394.435 1835.38 392.207 1846.19 383.7 1855.82 382.096 1866.6 379.104 1886.67 371.89 1904.35 361.093 1919.17 349.267 1921.52 338.361 1922.93 327.953 1926.01 319.462 1928.52 311.391 1935.56 304.458 1923.77 303.835 1922.72 301.778 1921.74 300.578 1921.93 279.888 1925.36 258.355 1926.48 238.771 1933.23 216.569 1940.88 211.349 1941.69 195.551 1920.85 195.036 1926.07 194.709 1929.45 194.226 1934.46 178.63 1933.85 163.237 1936.62 147.158 1936.84 122.385 1937.18 97.378 1945.32 73.1503 1952.45 55.2328 1957.73 43.6721 1952.67 39.9483 1933.6 29.1199 1878.19 21.392 1822.42 18.1512 1765.98 14.0692 1695.2 9.22364 1624.47 4.73646 1553.7 4.45602 1549.14 4.19115 1544.55 4.15999 1539.97 3.87954 1505.01 3.69257 1470.05 3.38096 1435.09 2.96029 1386.32 0.498575 1337.47 2.41497 1288.79 5.81152 1202.66-2.27475 1116.7 0.654378 1030.62 1.49573 1005.55 0.420674 980.401 1.21528 955.332 4.00418 867.162 6.15429 778.977 7.27608 690.76 7.54095 669.524 9.69106 648.257 12.1995 627.13 13.1499 619.121 17.528 611.518 20.3481 603.697 19.7093 613.668 19.0705 623.64 18.4317 633.627 19.6781 633.814 20.9246 634.032 22.171 634.234 24.3211 623.063 26.4868 611.908 29.3692 596.966 24.1497 601.032 22.0152 602.699 19.8651 604.367 19.9118 600.565 18.4629 594.473 20.239 593.304 35.5702 583.193 30.9584 568.454 30.5222 554.478 30.2729 546.127 32.1269 539.334 38.1566 531.855 47.6607 520.092 53.4722 505.384 61.948 489.912 55.9806 489.196 51.7739 489.211 47.8788 488.121 34.4796 484.366 25.4897 472.197 30.8493 460.73 37.1594 447.237 37.7982 435.178 32.3295 421.966 32.0335 421.265 33.8408 419.707 35.4923 417.401 43.1423 427.232 50.6365 436.861 58.5826 447.066 65.1731 441.566 70.673 438.403 74.0696 433.714 77.4661 429.024 82.2493 420.299 80.3797 417.666 68.2425 400.667 84.0099 383.451 78.8839 367.559 73.1971 349.906 80.2706 333.375 79.476 316.362 79.1332 309.163 77.4661 302.027 76.1574 293.225 77.435 292.445 81.0808 290.186 83.8229 288.504 82.4674 280.215 79.0397 272.082 80.6134 265.086 82.1091 258.355 88.7775 252.762 94.0282 245.486 83.8229 235.717 82.8725 223.767 87.1104 210.445 88.6373 205.693 87.9985 199.913 87.1572 194.803 85.1317 182.665 87.8427 172.273 97.5182 162.489 102.66 171.229 106.898 180.141 112.725 187.869 119.004 196.174 126.763 203.341 137.17 214.543 141.595 177.789 147.89 145.973 148.544 114.065 149.121 85.9575 156.475 60.7015 168.16 30.7559 170.217 39.4498 171.899 43.8902 172.242 48.4241 173.598 66.4663 175.14 84.5241 175.405 102.597 175.545 112.211 174.626 122.291 171.712 131.375 167.163 145.553 165.324 157.737 179.066 168.269 182.619 170.996 186.062 178.272 184.893 181.98 179.269 199.82 189.91 214.309 193.603 230.591 208.591 187.838 206.472 142.561 211.38 97.6117 219.716 98.2816 225.309 98.7335 228.846 99.0295 232.601 131.639 236.293 163.798 239.986 195.971 241.856 196.143 243.71 196.314 245.579 196.485 247.371 187.573 249.179 178.661 251.251 168.363 256.112 168.612 261.144 168.877 266.816 169.173 266.816 161.258 266.816 153.405 266.816 143.823 261.316 144.711 256.595 145.459 253.323 145.973 255.239 133.852 256.704 121.31 259.43 109.048 260.428 104.638 263.886 98.157 267.267 97.4247 276.226 95.4771 275.728 103.657 276.475 109.531 277.597 118.225 274.84 128.617 286.946 132.2L286.463 131.671" fill="#008291" transform="matrix(6.12323e-17 1 -1 6.12324e-17 4271.8 268.393)"/></g></svg>